<svg width="400" height="300">
<defs>
<g id="cat">
<circle cx="42" cy="57" r="30" style="stroke: #000000; fill: none;"/>
<circle cx="33" cy="48" r="3" style="stroke: none; fill: #339933;"/>
<circle cx="51" cy="48" r="3" style="stroke: none; fill: #339933;"/>
<g id="whiskers">
<line x1="45" y1="57" x2="81" y2="51" style="stroke: #000000;"/>
<line x1="45" y1="57" x2="81" y2="62" style="stroke: #000000;"/>
</g>
<use xlink:href="#whiskers" transform="scale(1 1) translate(84 0)"/>
<polyline points="64.8 37.2, 54 6, 42 27, 30 6, 19.2 37.2" style="stroke: #000000; fill: none;"/>
<polyline points="21 66, 27 72, 57 72, 62 66" style="stroke: #000000; fill: none;"/>
<path d="M 45 54 L 39 54 A 3 6 0 0 0 45 54" style="stroke: #000000; fill: #FFCCCC;"/>
</g>
</defs>
<g style="font-family: sans-serif; stroke: none; fill: #000000;" transform="translate(10 10)">
<rect x="0" y="0" width="45" height="135" style="stroke: #0000FF; fill: none;"/>
<svg width="45" height="135" viewBox="0 0 90 90">
<use xlink:href="#cat"/>
</svg>
<text x="22" y="150">*yMin</text>
</g>
<g style="font-family: sans-serif; stroke: none; fill: #000000;" transform="translate(80 10)">
<rect x="0" y="0" width="45" height="135" style="stroke: #0000FF; fill: none;"/>
<svg width="45" height="135" viewBox="0 0 90 90">
<use xlink:href="#cat"/>
</svg>
<text x="22" y="150">*yMid</text>
</g>
<g style="font-family: sans-serif; stroke: none; fill: #000000;" transform="translate(150 10)">
<rect x="0" y="0" width="45" height="135" style="stroke: #0000FF; fill: none;"/>
<svg width="45" height="135" viewBox="0 0 90 90">
<use xlink:href="#cat"/>
</svg>
<text x="22" y="150">*yMax</text>
</g>
<g style="font-family: sans-serif; stroke: none; fill: #000000;" transform="translate(210 10)">
<rect x="0" y="0" width="135" height="45" style="stroke: #0000FF; fill: none;"/>
<svg width="135" height="45" viewBox="0 0 90 90">
<use xlink:href="#cat"/>
</svg>
<text x="65" y="60">xMin*</text>
</g>
<g style="font-family: sans-serif; stroke: none; fill: #000000;" transform="translate(210 85)">
<rect x="0" y="0" width="135" height="45" style="stroke: #0000FF; fill: none;"/>
<svg width="135" height="45" viewBox="0 0 90 90">
<use xlink:href="#cat"/>
</svg>
<text x="65" y="60">xMid*</text>
</g>
<g style="font-family: sans-serif; stroke: none; fill: #000000;" transform="translate(210 160)">
<rect x="0" y="0" width="135" height="45" style="stroke: #0000FF; fill: none;"/>
<svg width="135" height="45" viewBox="0 0 90 90">
<use xlink:href="#cat"/>
</svg>
<text x="65" y="60">xMax*</text>
</g>
</svg>
