<svg width="350" height="200" viewBox="0 0 350 200">

<title>Effect of color values on transparency</title>

<defs>
<mask id="redmask" x="0" y="0" width="1" height="1" maskContentUnits="objectBoundingBox">
    <rect x="0" y="0" width="1" height="1" style="fill: #f00;"/>
</mask>

<mask id="greenmask" x="0" y="0" width="1" height="1" maskContentUnits="objectBoundingBox">
    <rect x="0" y="0" width="1" height="1" style="fill: #0f0;"/>
</mask>

<mask id="bluemask" x="0" y="0" width="1" height="1" maskContentUnits="objectBoundingBox">
    <rect x="0" y="0" width="1" height="1" style="fill: #00f;"/>
</mask>

<mask id="whitemask" x="0" y="0" width="1" height="1" maskContentUnits="objectBoundingBox">
  <rect x="0" y="0" width="1" height="1" style="fill: #fff;"/>
</mask>
</defs>

<!-- display the colors to show relative brightness (luminance) -->

<rect x="10"  y="10" width="50" height="50" style="fill: #f00;"/>
<rect x="70"  y="10" width="50" height="50" style="fill: #0f0;"/>
<rect x="130" y="10" width="50" height="50" style="fill: #00f;"/>
<rect x="190" y="10" width="50" height="50" style="fill: #fff; stroke: black;"/>

<g style="mask: url(#redmask); font-size: 14pt; text-anchor: middle;">
  <circle cx="35" cy="115" r="25"  style="fill: black;"/>
  <text x="35" y="80">Red</text>
</g>

<g style="mask: url(#greenmask); font-size: 14pt; text-anchor: middle;">
  <circle cx="95" cy="115" r="25" style="fill: black;"/>
</g>

<g style="mask: url(#bluemask); font-size: 14pt; text-anchor: middle;">
  <circle cx="155" cy="115" r="25" style="fill: black;"/>
</g>

<g style="mask: url(#whitemask); font-size: 14pt; text-anchor: middle;">
  <circle cx="215" cy="115" r="25" style="fill: black;"/>
</g>

</svg>
