<svg width="1200" height="900" viewBox="0 0 1200 900">

<title>Example arcs02 - arc options in paths</title>

<desc>Pictures showing the result of setting large-arc-flag and sweep-flag
to the four possible combinations of 0 and 1.</desc>

<defs>
  <g id="ex" style="stroke: black; fill: none;">
    <path d="M-10-10 10 10M-10 10 10-10"/>
  </g>
  <marker id="arrowhead" orient="auto" viewBox="0 0 10 10" refX="5" refY="5" markerWidth="10" markerHeight="10">
    <path d="M 0 0 L 10 5 L 0 10 z" />
  </marker>
  
  <g id="positive-ellipse">
    <ellipse cx="125" cy="125" rx="100" ry="50" style="fill:none; stroke-width:2"/>
  </g>
  <g id="negative-ellipse">
    <ellipse cx="225" cy="75" rx="100" ry="50" style="fill:none; stroke-width:2"/>
  </g>
    <g id="baseEllipses" style="font-size:20">
      <ellipse cx="125" cy="125" rx="100" ry="50" style="fill:none; stroke:#888888; stroke-width:2"/>
      <ellipse cx="225" cy="75" rx="100" ry="50" style="fill:none; stroke:#888888; stroke-width:2"/>
    </g>
</defs>

<g transform="translate(0,0)">
  <use xlink:href="#baseEllipses"/>
  <use xlink:href="#ex" transform="translate(125,75)"/>
  <use xlink:href="#ex" transform="translate(225,125)"/>
  <circle cx="30" cy="220" r="20" style="fill: none; stroke: black; stroke-width: 2;"/>
</g>

<g transform="translate(400,0)">
  <circle cx="20" cy="220" r="20" style="fill: none; stroke: black; stroke-width: 2;"/>
  <use xlink:href="#negative-ellipse" style="stroke: #666666;"/>
  <use xlink:href="#positive-ellipse" style="stroke: #cccccc; stroke-dasharray: 10 5;"/>
  <path d="M 125,75 a100,50 0 0,0 100,50" style="fill:none; stroke:black; stroke-width:6; marker-end: url(#arrowhead)"/>
</g>

<g transform="translate(800,0)">
  <circle cx="20" cy="220" r="20" style="fill: none; stroke: black; stroke-width: 2;"/>
  <use xlink:href="#positive-ellipse" style="stroke: #666666;"/>
  <use xlink:href="#negative-ellipse" style="stroke: #cccccc; stroke-dasharray: 10 5;"/>
  <path d="M 125,75 a100,50 0 0,1 100,50" style="fill:none; stroke:black; stroke-width:6; marker-end: url(#arrowhead)"/>
</g>

<g transform="translate(400,250)">
  <circle cx="20" cy="220" r="20" style="fill: none; stroke: black; stroke-width: 2;"/>
  <use xlink:href="#positive-ellipse" style="stroke: #666666;"/>
  <use xlink:href="#negative-ellipse" style="stroke: #cccccc; stroke-dasharray: 10 5;"/>
  <path d="M 125,75 a100,50 0 1,0 100,50" style="fill:none; stroke:black; stroke-width:6; marker-end: url(#arrowhead)"/>
</g>

<g transform="translate(800,250)">
  <circle cx="20" cy="220" r="20" style="fill: none; stroke: black; stroke-width: 2;"/>
  <use xlink:href="#negative-ellipse" style="stroke: #666666;"/>
  <use xlink:href="#positive-ellipse" style="stroke: #cccccc; stroke-dasharray: 10 5;"/>
  <path d="M 125,75 a100,50 0 1,1 100,50" style="fill:none; stroke:black; stroke-width:6; marker-end: url(#arrowhead)"/>
</g>

<g transform="translate(800,550)">
  <ellipse cx="186.9929" cy="59.5105" rx="100" ry="50" transform="rotate(30, 186.9929, 59.5105)" style="fill:none; stroke: #888888; stroke-width:2"/>
  <ellipse cx="163.00" cy="140.4895" rx="100" ry="50" transform="rotate(30, 163, 140.4895)" style="fill:none; stroke: #888888; stroke-width:2"/>      
  <use xlink:href="#ex" transform="translate(125,75)"/>
  <use xlink:href="#ex" transform="translate(225,125)"/>
  <circle cx="30" cy="120" r="20" style="fill: none; stroke: black; stroke-width: 2;"/>
</g>

</svg>
