/* XPM */

static const char *
trrotate2_data[] = {
  /* width height num_colors chars_per_pixel x_hot y_hot */
  "12 12 3 1 0 0",

  /* colors */
  ". s symbol1 c #000000 m black",
  "# s symbol2 c #ff0000 m black",
  "  s mask c none",

  /* pixels */
  "   .        ",
  "  ..        ",
  " .#.....    ",
  ".######..   ",
  " .#....#..  ",
  "  ..  ..#.  ",
  "   .   .#.  ",
  "       .#.  ",
  "     ...#...",
  "      .###. ",
  "       .#.  ",
  "        .   ",
};
