/* XPM */

static const char *
tsize1_data[] = {
  /* width height num_colors chars_per_pixel x_hot y_hot */
  "12 12 2 1 0 0",

  /* colors */
  ". s symbol1 c #000000 m black",
  "  s mask c none",

  /* pixels */
  "     .      ",
  "    . .     ",
  "   .   .    ",
  "  ... ...   ",
  "    . .     ",
  "    . .     ",
  "    . .     ",
  "    . .     ",
  "  ... ...   ",
  "   .   .    ",
  "    . .     ",
  "     .      ",
};
