/* XPM */

static const char *
dense6_xpm_data[] = {
  /* width height num_colors chars_per_pixel x_hot y_hot */
  "16 16 2 1 0 0",

  /* colors */
  "# s symbol1 c #ffffff m white",
  ". s none c none m none",

  /* pixels */
  "...#...#...#...#",
  "................",
  ".#...#...#...#..",
  "................",
  "...#...#...#...#",
  "................",
  ".#...#...#...#..",
  "................",
  "...#...#...#...#",
  "................",
  ".#...#...#...#..",
  "................",
  "...#...#...#...#",
  "................",
  ".#...#...#...#..",
  "................",
};
