/* XPM */

static const char *
dense3_xpm_data[] = {
  /* width height num_colors chars_per_pixel x_hot y_hot */
  "16 16 2 1 0 0",

  /* colors */
  ". s symbol1 c #000000 m black",
  "# s none c none m none",

  /* pixels */
  ".#.#.#.#.#.#.#.#",
  "..#...#...#...#.",
  ".#.#.#.#.#.#.#.#",
  "#...#...#...#...",
  ".#.#.#.#.#.#.#.#",
  "..#...#...#...#.",
  ".#.#.#.#.#.#.#.#",
  "#...#...#...#...",
  ".#.#.#.#.#.#.#.#",
  "..#...#...#...#.",
  ".#.#.#.#.#.#.#.#",
  "#...#...#...#...",
  ".#.#.#.#.#.#.#.#",
  "..#...#...#...#.",
  ".#.#.#.#.#.#.#.#",
  "#...#...#...#...",
};
