/* XPM */

static const char *
dense7_xpm_data[] = {
  /* width height num_colors chars_per_pixel x_hot y_hot */
  "15 15 2 1 0 0",

  /* colors */
  "# s symbol1 c #ffffff m white",
  ". s mask c none",

  /* pixels */
  "...............",
  ".#..#..#..#..#.",
  "...............",
  "...............",
  ".#..#..#..#..#.",
  "...............",
  "...............",
  ".#..#..#..#..#.",
  "...............",
  "...............",
  ".#..#..#..#..#.",
  "...............",
  "...............",
  ".#..#..#..#..#.",
  "...............",
};
